<svg width="105" height="106" viewBox="0 0 105 106" fill="none" xmlns="http://www.w3.org/2000/svg">
<path fill-rule="evenodd" clip-rule="evenodd" d="M2.82841 68.0122C1.26631 69.5743 1.26631 72.1069 2.82841 73.669L29.8979 100.739C29.9098 100.751 29.9218 100.763 29.9339 100.775L31.3481 102.189C32.7043 103.545 34.7921 103.724 36.3411 102.725C36.5764 102.574 36.7993 102.395 37.0052 102.189L38.4195 100.775C38.425 100.769 38.4306 100.764 38.4362 100.758L102.059 37.1354C103.621 35.5733 103.621 33.0406 102.059 31.4785L100.645 30.0643C99.0825 28.5022 96.5498 28.5022 94.9877 30.0643L34.1768 90.8752L9.89948 66.598C8.33738 65.0359 5.80472 65.0359 4.24262 66.598L2.82841 68.0122Z" fill="#0E1C34"/>
</svg>
